<svg xmlns="http://www.w3.org/2000/svg" width="20" height="20" viewBox="0 0 20 20" fill="none">
  <g clip-path="url(#clip0_106_1488)">
    <path d="M15.2904 10.9901L6.69068 19.5895C6.14364 20.1368 5.2567 20.1368 4.70992 19.5895C4.1631 19.0427 4.1631 18.1558 4.70992 17.609L12.3193 9.99986L4.71014 2.39095C4.16332 1.84391 4.16332 0.957105 4.71014 0.410283C5.25696 -0.136761 6.14386 -0.136761 6.6909 0.410283L15.2906 9.00983C15.564 9.28337 15.7005 9.64151 15.7005 9.99981C15.7005 10.3583 15.5637 10.7167 15.2904 10.9901Z" fill="#13556A"/>
    <path d="M15.2904 10.9901L6.69068 19.5895C6.14364 20.1368 5.2567 20.1368 4.70992 19.5895C4.1631 19.0427 4.1631 18.1558 4.70992 17.609L12.3193 9.99986L4.71014 2.39095C4.16332 1.84391 4.16332 0.957105 4.71014 0.410283C5.25696 -0.136761 6.14386 -0.136761 6.6909 0.410283L15.2906 9.00983C15.564 9.28337 15.7005 9.64151 15.7005 9.99981C15.7005 10.3583 15.5637 10.7167 15.2904 10.9901Z" fill="black" fill-opacity="0.2"/>
    <path d="M15.2904 10.9901L6.69068 19.5895C6.14364 20.1368 5.2567 20.1368 4.70992 19.5895C4.1631 19.0427 4.1631 18.1558 4.70992 17.609L12.3193 9.99986L4.71014 2.39095C4.16332 1.84391 4.16332 0.957105 4.71014 0.410283C5.25696 -0.136761 6.14386 -0.136761 6.6909 0.410283L15.2906 9.00983C15.564 9.28337 15.7005 9.64151 15.7005 9.99981C15.7005 10.3583 15.5637 10.7167 15.2904 10.9901Z" fill="black" fill-opacity="0.2"/>
    <path d="M15.2904 10.9901L6.69068 19.5895C6.14364 20.1368 5.2567 20.1368 4.70992 19.5895C4.1631 19.0427 4.1631 18.1558 4.70992 17.609L12.3193 9.99986L4.71014 2.39095C4.16332 1.84391 4.16332 0.957105 4.71014 0.410283C5.25696 -0.136761 6.14386 -0.136761 6.6909 0.410283L15.2906 9.00983C15.564 9.28337 15.7005 9.64151 15.7005 9.99981C15.7005 10.3583 15.5637 10.7167 15.2904 10.9901Z" fill="black" fill-opacity="0.2"/>
    <path d="M15.2904 10.9901L6.69068 19.5895C6.14364 20.1368 5.2567 20.1368 4.70992 19.5895C4.1631 19.0427 4.1631 18.1558 4.70992 17.609L12.3193 9.99986L4.71014 2.39095C4.16332 1.84391 4.16332 0.957105 4.71014 0.410283C5.25696 -0.136761 6.14386 -0.136761 6.6909 0.410283L15.2906 9.00983C15.564 9.28337 15.7005 9.64151 15.7005 9.99981C15.7005 10.3583 15.5637 10.7167 15.2904 10.9901Z" fill="black" fill-opacity="0.2"/>
  </g>
  <defs>
    <clipPath id="clip0_106_1488">
      <rect width="20" height="20" fill="white"/>
    </clipPath>
  </defs>
</svg>