<svg xmlns="http://www.w3.org/2000/svg" width="20" height="20" viewBox="0 0 20 20" fill="none">
  <g clip-path="url(#clip0_106_1485)">
    <path d="M4.70964 9.0099L13.3093 0.410482C13.8564 -0.136828 14.7433 -0.136828 15.2901 0.410482C15.8369 0.957304 15.8369 1.8442 15.2901 2.39098L7.68069 10.0001L15.2899 17.609C15.8367 18.1561 15.8367 19.0429 15.2899 19.5897C14.743 20.1368 13.8561 20.1368 13.3091 19.5897L4.70942 10.9902C4.43601 10.7166 4.29945 10.3585 4.29945 10.0002C4.29945 9.6417 4.43627 9.28331 4.70964 9.0099Z" fill="#13556A"/>
    <path d="M4.70964 9.0099L13.3093 0.410482C13.8564 -0.136828 14.7433 -0.136828 15.2901 0.410482C15.8369 0.957304 15.8369 1.8442 15.2901 2.39098L7.68069 10.0001L15.2899 17.609C15.8367 18.1561 15.8367 19.0429 15.2899 19.5897C14.743 20.1368 13.8561 20.1368 13.3091 19.5897L4.70942 10.9902C4.43601 10.7166 4.29945 10.3585 4.29945 10.0002C4.29945 9.6417 4.43627 9.28331 4.70964 9.0099Z" fill="black" fill-opacity="0.2"/>
    <path d="M4.70964 9.0099L13.3093 0.410482C13.8564 -0.136828 14.7433 -0.136828 15.2901 0.410482C15.8369 0.957304 15.8369 1.8442 15.2901 2.39098L7.68069 10.0001L15.2899 17.609C15.8367 18.1561 15.8367 19.0429 15.2899 19.5897C14.743 20.1368 13.8561 20.1368 13.3091 19.5897L4.70942 10.9902C4.43601 10.7166 4.29945 10.3585 4.29945 10.0002C4.29945 9.6417 4.43627 9.28331 4.70964 9.0099Z" fill="black" fill-opacity="0.2"/>
    <path d="M4.70964 9.0099L13.3093 0.410482C13.8564 -0.136828 14.7433 -0.136828 15.2901 0.410482C15.8369 0.957304 15.8369 1.8442 15.2901 2.39098L7.68069 10.0001L15.2899 17.609C15.8367 18.1561 15.8367 19.0429 15.2899 19.5897C14.743 20.1368 13.8561 20.1368 13.3091 19.5897L4.70942 10.9902C4.43601 10.7166 4.29945 10.3585 4.29945 10.0002C4.29945 9.6417 4.43627 9.28331 4.70964 9.0099Z" fill="black" fill-opacity="0.2"/>
    <path d="M4.70964 9.0099L13.3093 0.410482C13.8564 -0.136828 14.7433 -0.136828 15.2901 0.410482C15.8369 0.957304 15.8369 1.8442 15.2901 2.39098L7.68069 10.0001L15.2899 17.609C15.8367 18.1561 15.8367 19.0429 15.2899 19.5897C14.743 20.1368 13.8561 20.1368 13.3091 19.5897L4.70942 10.9902C4.43601 10.7166 4.29945 10.3585 4.29945 10.0002C4.29945 9.6417 4.43627 9.28331 4.70964 9.0099Z" fill="black" fill-opacity="0.2"/>
  </g>
  <defs>
    <clipPath id="clip0_106_1485">
      <rect width="20" height="20" fill="white" transform="translate(20 20) rotate(-180)"/>
    </clipPath>
  </defs>
</svg>