<svg xmlns="http://www.w3.org/2000/svg" width="15" height="16" viewBox="0 0 15 16" fill="none">
  <g clip-path="url(#clip0_414_4624)">
    <path d="M14.6637 12.355L12.3472 10.0382C11.8858 9.57869 11.1217 9.59266 10.6442 10.0703L9.47714 11.2371C9.40341 11.1965 9.32709 11.154 9.24685 11.109C8.50986 10.7006 7.50116 10.1409 6.43971 9.07872C5.37512 8.01426 4.8149 7.00401 4.40529 6.26654C4.36207 6.18841 4.32065 6.11308 4.27976 6.04155L5.06303 5.25943L5.44812 4.87387C5.92633 4.39553 5.93952 3.63165 5.47919 3.17076L3.16268 0.853728C2.70235 0.393485 1.93791 0.407448 1.45969 0.88579L0.806819 1.54241L0.82466 1.56012C0.605743 1.83946 0.422809 2.16163 0.286676 2.50905C0.161186 2.83975 0.083057 3.15533 0.0473321 3.47155C-0.258548 6.00737 0.900247 8.32492 4.04507 11.4698C8.39217 15.8166 11.8954 15.4882 12.0465 15.4722C12.3756 15.4328 12.6911 15.3542 13.0117 15.2297C13.3561 15.0951 13.678 14.9125 13.9572 14.694L13.9714 14.7067L14.6329 14.059C15.1101 13.5808 15.1238 12.8166 14.6637 12.355Z" fill="#1E708A"/>
  </g>
  <defs>
    <clipPath id="clip0_414_4624">
      <rect width="15" height="15" fill="white" transform="translate(0 0.5)"/>
    </clipPath>
  </defs>
</svg>