<svg xmlns="http://www.w3.org/2000/svg" width="15" height="16" viewBox="0 0 15 16" fill="none">
  <path d="M14.9888 3.73241C14.9888 3.71527 15.0006 3.69858 14.9998 3.68164L10.4224 8.09229L14.9944 12.3621C14.997 12.3316 14.9888 12.3008 14.9888 12.2696V3.73241Z" fill="#1E708A"/>
  <path d="M9.72348 8.76953L7.85481 10.5674C7.76025 10.6584 7.63813 10.704 7.51593 10.704C7.39628 10.704 7.27663 10.6604 7.18272 10.5728L5.31915 8.83626L0.717285 13.2719C0.829181 13.3122 0.949288 13.3434 1.07506 13.3434H13.9569C14.1436 13.3434 14.3188 13.2865 14.4711 13.2016L9.72348 8.76953Z" fill="#1E708A"/>
  <path d="M7.51075 9.54281L14.4966 2.81337C14.3385 2.71933 14.1544 2.65625 13.957 2.65625H1.07522C0.818257 2.65625 0.5828 2.75602 0.399414 2.90819L7.51075 9.54281Z" fill="#1E708A"/>
  <path d="M0 3.89453V12.2677C0 12.3639 0.0220924 12.4565 0.0460746 12.5451L4.59085 8.16859L0 3.89453Z" fill="#1E708A"/>
</svg>