<svg xmlns="http://www.w3.org/2000/svg" width="20" height="21" viewBox="0 0 20 21" fill="none">
  <path d="M18.6711 0.500002H0.840575C0.525893 0.499407 0.237584 0.675089 0.0938265 0.954871C-0.0519143 1.23842 -0.0263353 1.57987 0.159856 1.83883L6.69222 11.0411C6.6944 11.0443 6.69678 11.0473 6.69896 11.0504C6.93631 11.3709 7.0648 11.7591 7.06539 12.1579V19.6605C7.064 19.8825 7.15125 20.0961 7.3077 20.2537C7.46434 20.4112 7.6773 20.5 7.89939 20.5C8.01221 20.4998 8.12405 20.4774 8.22834 20.434L11.899 19.0345C12.2278 18.9339 12.4461 18.6236 12.4461 18.25V12.1579C12.4467 11.7591 12.5752 11.3709 12.8123 11.0504C12.8145 11.0473 12.8169 11.0443 12.8191 11.0411L19.3516 1.83864C19.5378 1.57987 19.5634 1.23862 19.4177 0.95507C19.2741 0.675089 18.9856 0.499407 18.6711 0.500002Z" fill="#13556A"/>
  <path d="M18.6711 0.500002H0.840575C0.525893 0.499407 0.237584 0.675089 0.0938265 0.954871C-0.0519143 1.23842 -0.0263353 1.57987 0.159856 1.83883L6.69222 11.0411C6.6944 11.0443 6.69678 11.0473 6.69896 11.0504C6.93631 11.3709 7.0648 11.7591 7.06539 12.1579V19.6605C7.064 19.8825 7.15125 20.0961 7.3077 20.2537C7.46434 20.4112 7.6773 20.5 7.89939 20.5C8.01221 20.4998 8.12405 20.4774 8.22834 20.434L11.899 19.0345C12.2278 18.9339 12.4461 18.6236 12.4461 18.25V12.1579C12.4467 11.7591 12.5752 11.3709 12.8123 11.0504C12.8145 11.0473 12.8169 11.0443 12.8191 11.0411L19.3516 1.83864C19.5378 1.57987 19.5634 1.23862 19.4177 0.95507C19.2741 0.675089 18.9856 0.499407 18.6711 0.500002Z" fill="black" fill-opacity="0.2"/>
  <path d="M18.6711 0.500002H0.840575C0.525893 0.499407 0.237584 0.675089 0.0938265 0.954871C-0.0519143 1.23842 -0.0263353 1.57987 0.159856 1.83883L6.69222 11.0411C6.6944 11.0443 6.69678 11.0473 6.69896 11.0504C6.93631 11.3709 7.0648 11.7591 7.06539 12.1579V19.6605C7.064 19.8825 7.15125 20.0961 7.3077 20.2537C7.46434 20.4112 7.6773 20.5 7.89939 20.5C8.01221 20.4998 8.12405 20.4774 8.22834 20.434L11.899 19.0345C12.2278 18.9339 12.4461 18.6236 12.4461 18.25V12.1579C12.4467 11.7591 12.5752 11.3709 12.8123 11.0504C12.8145 11.0473 12.8169 11.0443 12.8191 11.0411L19.3516 1.83864C19.5378 1.57987 19.5634 1.23862 19.4177 0.95507C19.2741 0.675089 18.9856 0.499407 18.6711 0.500002Z" fill="black" fill-opacity="0.2"/>
  <path d="M18.6711 0.500002H0.840575C0.525893 0.499407 0.237584 0.675089 0.0938265 0.954871C-0.0519143 1.23842 -0.0263353 1.57987 0.159856 1.83883L6.69222 11.0411C6.6944 11.0443 6.69678 11.0473 6.69896 11.0504C6.93631 11.3709 7.0648 11.7591 7.06539 12.1579V19.6605C7.064 19.8825 7.15125 20.0961 7.3077 20.2537C7.46434 20.4112 7.6773 20.5 7.89939 20.5C8.01221 20.4998 8.12405 20.4774 8.22834 20.434L11.899 19.0345C12.2278 18.9339 12.4461 18.6236 12.4461 18.25V12.1579C12.4467 11.7591 12.5752 11.3709 12.8123 11.0504C12.8145 11.0473 12.8169 11.0443 12.8191 11.0411L19.3516 1.83864C19.5378 1.57987 19.5634 1.23862 19.4177 0.95507C19.2741 0.675089 18.9856 0.499407 18.6711 0.500002Z" fill="black" fill-opacity="0.2"/>
  <path d="M18.6711 0.500002H0.840575C0.525893 0.499407 0.237584 0.675089 0.0938265 0.954871C-0.0519143 1.23842 -0.0263353 1.57987 0.159856 1.83883L6.69222 11.0411C6.6944 11.0443 6.69678 11.0473 6.69896 11.0504C6.93631 11.3709 7.0648 11.7591 7.06539 12.1579V19.6605C7.064 19.8825 7.15125 20.0961 7.3077 20.2537C7.46434 20.4112 7.6773 20.5 7.89939 20.5C8.01221 20.4998 8.12405 20.4774 8.22834 20.434L11.899 19.0345C12.2278 18.9339 12.4461 18.6236 12.4461 18.25V12.1579C12.4467 11.7591 12.5752 11.3709 12.8123 11.0504C12.8145 11.0473 12.8169 11.0443 12.8191 11.0411L19.3516 1.83864C19.5378 1.57987 19.5634 1.23862 19.4177 0.95507C19.2741 0.675089 18.9856 0.499407 18.6711 0.500002Z" fill="black" fill-opacity="0.2"/>
</svg>