<svg width="24" height="25" viewBox="0 0 24 25" fill="none" xmlns="http://www.w3.org/2000/svg">
<path d="M5.34675 12.6463C5.34675 11.8734 5.4737 11.1303 5.70521 10.4321L1.6875 7.36279C0.903372 8.95345 0.462769 10.7457 0.462769 12.6463C0.462769 14.5469 0.903372 16.3354 1.68376 17.9223L5.69774 14.8493C5.46997 14.1548 5.34302 13.4155 5.34302 12.6463" fill="#121212"/>
<path d="M12.4001 5.60015C14.0804 5.60015 15.6001 6.19758 16.795 7.17213L20.2675 3.70331C18.1504 1.86248 15.4396 0.723633 12.4001 0.723633C7.68419 0.723633 3.62914 3.42326 1.6875 7.36256L5.70521 10.4319C6.63122 7.6202 9.27111 5.60015 12.4001 5.60015Z" fill="#121212"/>
<path d="M12.4001 19.6882C9.26738 19.6882 6.63122 17.6681 5.70521 14.8564L1.6875 17.9257C3.62914 21.8688 7.68419 24.5647 12.4001 24.5647C15.3126 24.5647 18.0907 23.5304 20.1779 21.5925L16.3656 18.6427C15.2902 19.3222 13.9348 19.6844 12.4001 19.6844" fill="#121212"/>
<path d="M23.7961 12.6461C23.7961 11.9404 23.6878 11.1824 23.5235 10.4805H12.4001V15.0844H18.8038C18.4827 16.6564 17.6127 17.8625 16.3656 18.6466L20.1779 21.5964C22.3697 19.5614 23.7961 16.5332 23.7961 12.6461Z" fill="#121212"/>
</svg>
