<svg width="24" height="25" viewBox="0 0 24 25" fill="none" xmlns="http://www.w3.org/2000/svg">
<g clip-path="url(#clip0_229_2954)">
<mask id="mask0_229_2954" style="mask-type:luminance" maskUnits="userSpaceOnUse" x="0" y="0" width="24" height="25">
<path d="M21.2224 5.50922C21.0105 4.96519 20.7576 4.57562 20.3503 4.16827C19.9416 3.75956 19.5534 3.50668 19.0079 3.29618C18.5965 3.13625 17.9787 2.94625 16.8414 2.8943C15.6112 2.83826 15.2421 2.82596 12.1269 2.82596C9.01166 2.82596 8.64259 2.83826 7.41236 2.8943C6.27508 2.94625 5.65724 3.13625 5.24579 3.29618C4.70176 3.50805 4.31219 3.76093 3.90485 4.16827C3.49614 4.57698 3.24326 4.96519 3.03275 5.50922C2.87282 5.92066 2.68282 6.53851 2.63088 7.67579C2.57483 8.90602 2.56253 9.27509 2.56253 12.3903C2.56253 15.5055 2.57483 15.8746 2.63088 17.1048C2.68282 18.2421 2.87282 18.8599 3.03275 19.2714C3.24462 19.8154 3.4975 20.205 3.90485 20.6123C4.31355 21.021 4.70176 21.2726 5.24579 21.4844C5.65724 21.6444 6.27508 21.8344 7.41236 21.8863C8.64259 21.9423 9.01166 21.9546 12.1269 21.9546C15.2421 21.9546 15.6112 21.9423 16.8414 21.8863C17.9787 21.8344 18.5965 21.6444 19.0079 21.4844C19.5534 21.2726 19.9416 21.0197 20.3503 20.6123C20.7576 20.2036 21.0105 19.8154 21.2224 19.2714C21.3823 18.8599 21.5723 18.2421 21.6242 17.1048C21.6803 15.8746 21.6926 15.5055 21.6926 12.3903C21.6926 9.27509 21.6803 8.90602 21.6242 7.67579C21.5723 6.53851 21.3823 5.92066 21.2224 5.50922ZM12.1282 18.3815C8.81892 18.3815 6.13703 15.6996 6.13703 12.3903C6.13703 9.08099 8.81892 6.39909 12.1282 6.39909C15.4376 6.39909 18.1195 9.08099 18.1195 12.3903C18.1195 15.6996 15.4376 18.3815 12.1282 18.3815ZM18.3559 7.56234C17.5823 7.56234 16.9562 6.93492 16.9562 6.16261C16.9562 5.3903 17.5836 4.76288 18.3559 4.76288C19.1282 4.76288 19.7557 5.38893 19.7557 6.16261C19.7557 6.93629 19.1282 7.56234 18.3559 7.56234ZM12.1282 8.50141C9.98081 8.50141 8.23935 10.2429 8.23935 12.3903C8.23935 14.5377 9.98081 16.2792 12.1282 16.2792C14.2757 16.2792 16.0171 14.5377 16.0171 12.3903C16.0171 10.2429 14.2757 8.50141 12.1282 8.50141ZM23.7252 17.2005C23.6678 18.4417 23.4709 19.2905 23.1825 20.0328C22.8845 20.7996 22.4854 21.4503 21.8361 22.0995C21.1868 22.7475 20.5375 23.1466 19.7693 23.4446C19.0271 23.733 18.1796 23.9298 16.9371 23.9873C15.6932 24.0433 15.2954 24.057 12.1269 24.057C8.95835 24.057 8.56194 24.0433 7.31668 23.9873C6.07551 23.9298 5.22666 23.733 4.48442 23.4446C3.71758 23.1466 3.06692 22.7475 2.41764 22.0995C1.76835 21.4503 1.37057 20.7996 1.07259 20.0328C0.784165 19.2905 0.587329 18.443 0.529918 17.2005C0.473874 15.9566 0.460205 15.5588 0.460205 12.3903C0.460205 9.22178 0.473874 8.824 0.529918 7.58011C0.585962 6.33894 0.784165 5.49009 1.07259 4.74785C1.37057 3.981 1.76972 3.33035 2.41764 2.68106C3.06692 2.03314 3.71621 1.634 4.48442 1.33601C5.22666 1.04759 6.07415 0.850756 7.31668 0.793346C8.56058 0.735935 8.95835 0.723633 12.1269 0.723633C15.2954 0.723633 15.6932 0.737302 16.9371 0.793346C18.1782 0.84939 19.0271 1.04759 19.7693 1.33601C20.5362 1.634 21.1868 2.03314 21.8361 2.68106C22.484 3.33035 22.8832 3.981 23.1825 4.74785C23.4709 5.49009 23.6678 6.33758 23.7252 7.58011C23.7826 8.824 23.7949 9.22178 23.7949 12.3903C23.7949 15.5588 23.7812 15.9566 23.7252 17.2005Z" fill="white"/>
</mask>
<g mask="url(#mask0_229_2954)">
<rect x="0.154053" y="0.391602" width="23.9211" height="23.9211" fill="#121212"/>
</g>
</g>
<defs>
<clipPath id="clip0_229_2954">
<rect width="23.3333" height="23.3333" fill="white" transform="translate(0.461548 0.723633)"/>
</clipPath>
</defs>
</svg>
