<svg xmlns="http://www.w3.org/2000/svg" width="32" height="34" viewBox="0 0 32 34" fill="none">
  <path fill-rule="evenodd" clip-rule="evenodd" d="M30 33.3901C31.1046 33.3901 32 32.4947 32 31.3901L32 14.9286L31.9999 14.9286L27.9246 0.695133L23.3845 14.9286L19.2308 14.9286C18.1262 14.9286 17.2308 15.824 17.2308 16.9286L17.2308 31.3901C17.2308 32.4947 18.1262 33.3901 19.2308 33.3901L30 33.3901Z" fill="#13556A"/>
  <path fill-rule="evenodd" clip-rule="evenodd" d="M30 33.3901C31.1046 33.3901 32 32.4947 32 31.3901L32 14.9286L31.9999 14.9286L27.9246 0.695133L23.3845 14.9286L19.2308 14.9286C18.1262 14.9286 17.2308 15.824 17.2308 16.9286L17.2308 31.3901C17.2308 32.4947 18.1262 33.3901 19.2308 33.3901L30 33.3901Z" fill="black" fill-opacity="0.2"/>
  <path fill-rule="evenodd" clip-rule="evenodd" d="M30 33.3901C31.1046 33.3901 32 32.4947 32 31.3901L32 14.9286L31.9999 14.9286L27.9246 0.695133L23.3845 14.9286L19.2308 14.9286C18.1262 14.9286 17.2308 15.824 17.2308 16.9286L17.2308 31.3901C17.2308 32.4947 18.1262 33.3901 19.2308 33.3901L30 33.3901Z" fill="black" fill-opacity="0.2"/>
  <path fill-rule="evenodd" clip-rule="evenodd" d="M30 33.3901C31.1046 33.3901 32 32.4947 32 31.3901L32 14.9286L31.9999 14.9286L27.9246 0.695133L23.3845 14.9286L19.2308 14.9286C18.1262 14.9286 17.2308 15.824 17.2308 16.9286L17.2308 31.3901C17.2308 32.4947 18.1262 33.3901 19.2308 33.3901L30 33.3901Z" fill="black" fill-opacity="0.2"/>
  <path fill-rule="evenodd" clip-rule="evenodd" d="M30 33.3901C31.1046 33.3901 32 32.4947 32 31.3901L32 14.9286L31.9999 14.9286L27.9246 0.695133L23.3845 14.9286L19.2308 14.9286C18.1262 14.9286 17.2308 15.824 17.2308 16.9286L17.2308 31.3901C17.2308 32.4947 18.1262 33.3901 19.2308 33.3901L30 33.3901Z" fill="black" fill-opacity="0.2"/>
  <path fill-rule="evenodd" clip-rule="evenodd" d="M12.7693 33.3901C13.8739 33.3901 14.7693 32.4947 14.7693 31.3901L14.7693 14.9286L14.7692 14.9286L10.6939 0.695133L6.15382 14.9286L2.00006 14.9286C0.895488 14.9286 5.78025e-05 15.824 5.77059e-05 16.9286L5.64416e-05 31.3901C5.63451e-05 32.4947 0.895487 33.3901 2.00006 33.3901L12.7693 33.3901Z" fill="#13556A"/>
  <path fill-rule="evenodd" clip-rule="evenodd" d="M12.7693 33.3901C13.8739 33.3901 14.7693 32.4947 14.7693 31.3901L14.7693 14.9286L14.7692 14.9286L10.6939 0.695133L6.15382 14.9286L2.00006 14.9286C0.895488 14.9286 5.78025e-05 15.824 5.77059e-05 16.9286L5.64416e-05 31.3901C5.63451e-05 32.4947 0.895487 33.3901 2.00006 33.3901L12.7693 33.3901Z" fill="black" fill-opacity="0.2"/>
  <path fill-rule="evenodd" clip-rule="evenodd" d="M12.7693 33.3901C13.8739 33.3901 14.7693 32.4947 14.7693 31.3901L14.7693 14.9286L14.7692 14.9286L10.6939 0.695133L6.15382 14.9286L2.00006 14.9286C0.895488 14.9286 5.78025e-05 15.824 5.77059e-05 16.9286L5.64416e-05 31.3901C5.63451e-05 32.4947 0.895487 33.3901 2.00006 33.3901L12.7693 33.3901Z" fill="black" fill-opacity="0.2"/>
  <path fill-rule="evenodd" clip-rule="evenodd" d="M12.7693 33.3901C13.8739 33.3901 14.7693 32.4947 14.7693 31.3901L14.7693 14.9286L14.7692 14.9286L10.6939 0.695133L6.15382 14.9286L2.00006 14.9286C0.895488 14.9286 5.78025e-05 15.824 5.77059e-05 16.9286L5.64416e-05 31.3901C5.63451e-05 32.4947 0.895487 33.3901 2.00006 33.3901L12.7693 33.3901Z" fill="black" fill-opacity="0.2"/>
  <path fill-rule="evenodd" clip-rule="evenodd" d="M12.7693 33.3901C13.8739 33.3901 14.7693 32.4947 14.7693 31.3901L14.7693 14.9286L14.7692 14.9286L10.6939 0.695133L6.15382 14.9286L2.00006 14.9286C0.895488 14.9286 5.78025e-05 15.824 5.77059e-05 16.9286L5.64416e-05 31.3901C5.63451e-05 32.4947 0.895487 33.3901 2.00006 33.3901L12.7693 33.3901Z" fill="black" fill-opacity="0.2"/>
</svg>