<svg xmlns="http://www.w3.org/2000/svg" width="32" height="33" viewBox="0 0 32 33" fill="none">
  <path fill-rule="evenodd" clip-rule="evenodd" d="M2 0C0.895431 0 0 0.89543 0 2V18.4615H5.90846e-05L4.07536 32.695L8.61547 18.4615H12.7692C13.8738 18.4615 14.7692 17.5661 14.7692 16.4615V2C14.7692 0.895431 13.8738 0 12.7692 0H2Z" fill="#13556A"/>
  <path fill-rule="evenodd" clip-rule="evenodd" d="M2 0C0.895431 0 0 0.89543 0 2V18.4615H5.90846e-05L4.07536 32.695L8.61547 18.4615H12.7692C13.8738 18.4615 14.7692 17.5661 14.7692 16.4615V2C14.7692 0.895431 13.8738 0 12.7692 0H2Z" fill="black" fill-opacity="0.2"/>
  <path fill-rule="evenodd" clip-rule="evenodd" d="M2 0C0.895431 0 0 0.89543 0 2V18.4615H5.90846e-05L4.07536 32.695L8.61547 18.4615H12.7692C13.8738 18.4615 14.7692 17.5661 14.7692 16.4615V2C14.7692 0.895431 13.8738 0 12.7692 0H2Z" fill="black" fill-opacity="0.2"/>
  <path fill-rule="evenodd" clip-rule="evenodd" d="M2 0C0.895431 0 0 0.89543 0 2V18.4615H5.90846e-05L4.07536 32.695L8.61547 18.4615H12.7692C13.8738 18.4615 14.7692 17.5661 14.7692 16.4615V2C14.7692 0.895431 13.8738 0 12.7692 0H2Z" fill="black" fill-opacity="0.2"/>
  <path fill-rule="evenodd" clip-rule="evenodd" d="M2 0C0.895431 0 0 0.89543 0 2V18.4615H5.90846e-05L4.07536 32.695L8.61547 18.4615H12.7692C13.8738 18.4615 14.7692 17.5661 14.7692 16.4615V2C14.7692 0.895431 13.8738 0 12.7692 0H2Z" fill="black" fill-opacity="0.2"/>
  <path fill-rule="evenodd" clip-rule="evenodd" d="M19.2307 0C18.1261 0 17.2307 0.89543 17.2307 2V18.4615H17.2308L21.3061 32.695L25.8462 18.4615H29.9999C31.1045 18.4615 31.9999 17.5661 31.9999 16.4615V2C31.9999 0.895431 31.1045 0 29.9999 0H19.2307Z" fill="#13556A"/>
  <path fill-rule="evenodd" clip-rule="evenodd" d="M19.2307 0C18.1261 0 17.2307 0.89543 17.2307 2V18.4615H17.2308L21.3061 32.695L25.8462 18.4615H29.9999C31.1045 18.4615 31.9999 17.5661 31.9999 16.4615V2C31.9999 0.895431 31.1045 0 29.9999 0H19.2307Z" fill="black" fill-opacity="0.2"/>
  <path fill-rule="evenodd" clip-rule="evenodd" d="M19.2307 0C18.1261 0 17.2307 0.89543 17.2307 2V18.4615H17.2308L21.3061 32.695L25.8462 18.4615H29.9999C31.1045 18.4615 31.9999 17.5661 31.9999 16.4615V2C31.9999 0.895431 31.1045 0 29.9999 0H19.2307Z" fill="black" fill-opacity="0.2"/>
  <path fill-rule="evenodd" clip-rule="evenodd" d="M19.2307 0C18.1261 0 17.2307 0.89543 17.2307 2V18.4615H17.2308L21.3061 32.695L25.8462 18.4615H29.9999C31.1045 18.4615 31.9999 17.5661 31.9999 16.4615V2C31.9999 0.895431 31.1045 0 29.9999 0H19.2307Z" fill="black" fill-opacity="0.2"/>
  <path fill-rule="evenodd" clip-rule="evenodd" d="M19.2307 0C18.1261 0 17.2307 0.89543 17.2307 2V18.4615H17.2308L21.3061 32.695L25.8462 18.4615H29.9999C31.1045 18.4615 31.9999 17.5661 31.9999 16.4615V2C31.9999 0.895431 31.1045 0 29.9999 0H19.2307Z" fill="black" fill-opacity="0.2"/>
</svg>