<svg xmlns="http://www.w3.org/2000/svg" width="16" height="15" viewBox="0 0 16 15" fill="none">
  <path d="M7.99981 0C5.00436 0 2.56738 2.43697 2.56738 5.4324C2.56738 9.14982 7.42888 14.6072 7.63586 14.8377C7.83027 15.0543 8.16971 15.0539 8.36377 14.8377C8.57075 14.6072 13.4322 9.14982 13.4322 5.4324C13.4322 2.43697 10.9952 0 7.99981 0ZM7.99981 8.1656C6.49272 8.1656 5.26665 6.93949 5.26665 5.4324C5.26665 3.92531 6.49275 2.69924 7.99981 2.69924C9.50688 2.69924 10.7329 3.92534 10.7329 5.43243C10.7329 6.93952 9.50688 8.1656 7.99981 8.1656Z" fill="#1E708A"/>
</svg>