<svg xmlns="http://www.w3.org/2000/svg" width="234" height="49" viewBox="0 0 234 49" fill="none">
  <g clip-path="url(#clip0_1058_5075)">
    <path d="M26.5037 11.5538L31.8827 0.916211C31.9428 0.775891 32.1366 0.715754 32.307 0.765868C32.3871 0.789255 32.4573 0.849392 32.4907 0.916211C37.1981 9.84322 41.9389 18.7936 46.7265 27.7674C47.3746 28.9768 47.3546 30.1128 46.6563 31.1551C46.4124 31.5126 46.1819 31.5126 45.9681 31.1384L38.1703 17.5174C38.0601 17.3336 37.7961 17.2601 37.5723 17.3437C37.4721 17.3837 37.3885 17.4606 37.3485 17.5508L28.094 39.2068C27.8902 39.6812 27.5862 39.7247 27.192 39.3471L26.5939 38.7792C26.2599 38.4618 26.0059 38.5052 25.8356 38.8961L21.7563 47.8064C21.636 48.0804 21.3921 48.214 21.038 48.214H4.89783C4.53367 48.214 4.41339 48.0737 4.53367 47.7897L10.7612 33.9515C10.9115 33.6107 11.2156 33.4504 11.6633 33.4771L14.2157 33.6341C14.5899 33.6575 14.8438 33.5272 14.9741 33.2332L24.4424 12.1217C24.5727 11.8311 24.8366 11.6874 25.2208 11.7142L26.0928 11.771C26.2966 11.7776 26.4369 11.7142 26.5071 11.5538H26.5037Z" fill="#13556A"/>
    <path d="M0.0567917 47.5558L14.8505 16.9928C14.9207 16.8425 15.1144 16.7757 15.2949 16.8358C15.3851 16.8592 15.4452 16.9193 15.4886 16.9862L17.8975 21.5065C18.0478 21.7904 18.0478 22.0811 17.9175 22.3751L13.7547 31.3856C13.6043 31.7264 13.3103 31.8601 12.8827 31.7866C9.85579 31.2687 9.80568 32.6619 8.93369 34.3658C6.69525 38.7458 4.51027 43.1424 2.37207 47.5458C2.03797 48.2374 1.35976 48.4312 0.337431 48.1038C0.0233823 48.0035 -0.0768462 47.8198 0.0534508 47.5625L0.0567917 47.5558Z" fill="#DE9300"/>
    <path d="M28.9359 43.0589L37.6959 22.5455C37.7761 22.355 38.04 22.2448 38.2739 22.3116C38.3841 22.345 38.4877 22.4118 38.5378 22.502L45.8578 34.9638C45.9681 35.1475 46.2421 35.221 46.4659 35.1308C46.5561 35.0907 46.6263 35.0306 46.6797 34.9571L50.2946 28.175C50.3948 27.9845 50.6588 27.891 50.8927 27.9745C50.9929 28.0079 51.0764 28.0747 51.1265 28.1583L62.9435 47.6694C63.0537 47.8532 62.9635 48.077 62.7397 48.1705C62.6795 48.1939 62.5993 48.2106 62.5258 48.2106H24.3421C24.0882 48.2106 23.8878 48.0436 23.8878 47.8365C23.8878 47.7964 23.8978 47.7462 23.9178 47.7028L26.2264 42.6546C26.3166 42.4642 26.5806 42.364 26.8144 42.4375C26.8445 42.4442 26.8746 42.4609 26.9046 42.4776L28.251 43.236C28.4548 43.3529 28.7355 43.3095 28.8892 43.1458C28.9092 43.1224 28.9293 43.089 28.9393 43.0556L28.9359 43.0589Z" fill="#DE9300"/>
    <path d="M144.88 34.0384C142.979 34.0384 141.372 33.4237 140.433 33.0729C139.936 32.8958 139.555 32.8089 139.204 32.8089C138.706 32.8089 138.442 33.2466 138.415 33.7143H136.778V26.7819H138.242C139.03 30.644 142.481 32.0472 144.59 32.0472C146.698 32.0472 148.448 31.2855 148.448 29.5014C148.448 24.3229 136.722 27.5135 136.722 19.5587C136.722 15.6966 140.143 14.5874 143.303 14.5874C144.97 14.5874 146.698 15.1721 147.66 15.4928C148.041 15.6398 148.275 15.6966 148.539 15.6966C149.006 15.6966 149.21 15.3759 149.27 14.8781H150.967V21.3127H149.534C148.833 18.2725 146.464 16.6321 143.567 16.6321C141.96 16.6321 140.203 17.1867 140.203 18.8271C140.203 22.9799 152.137 20.5543 152.137 28.5091C152.137 32.3713 148.629 34.0351 144.884 34.0351L144.88 34.0384Z" fill="#13556A"/>
    <path d="M169.653 22.4554C169.45 19.7058 168.892 16.7524 165.501 16.7524H164.595V29.7386C164.595 31.4659 165.297 31.7566 166.466 31.7566H168.193V33.7177H157.489V31.7866H158.424C159.828 31.7866 160.295 31.4058 160.295 29.7687V16.7524H159.447C156.056 16.7524 155.498 19.6757 155.294 22.4554H153.744V14.9115H171.204V22.4286L169.653 22.4587V22.4554Z" fill="#13556A"/>
    <path d="M182.67 34.0384C177.521 34.0384 172.961 30.3533 172.961 24.3296C172.961 18.3058 177.525 14.5907 182.67 14.5907C187.815 14.5907 192.378 18.2758 192.378 24.3296C192.378 30.3834 187.815 34.0384 182.67 34.0384ZM182.289 16.5786C178.604 16.5786 177.638 20.4106 177.638 23.3039C177.638 26.4611 178.955 32.0204 183.047 32.0204C186.732 32.0204 187.668 28.1884 187.668 25.2951C187.668 22.1646 186.381 16.5786 182.285 16.5786H182.289Z" fill="#13556A"/>
    <path d="M214.228 16.8425C212.855 16.8425 212.387 17.2234 212.387 18.8605V33.7176H208.382L199.167 19.7091V29.7419C199.167 31.4692 199.839 31.7599 201.011 31.7599H202.415V33.721H194.517V31.7899H194.837C196.211 31.7899 196.678 31.4091 196.678 29.772V18.9206C196.678 17.925 196.15 17.0764 195.332 16.6688L194.132 16.0841V14.9148H201.005L209.895 28.165V18.8939C209.895 17.1666 209.193 16.8759 208.051 16.8759H206.795V14.9148H214.546V16.8459H214.225L214.228 16.8425Z" fill="#13556A"/>
    <path d="M216.684 33.7176V31.7866H217.005C218.378 31.7866 218.845 31.4057 218.845 29.7686V18.7702C218.845 17.7746 218.348 16.8692 217.499 16.5184L216.3 16.0206V14.9081H233.846V21.5465H232.296C231.885 18.68 230.863 16.8391 227.645 16.8391H224.983C223.727 16.8391 223.169 17.337 223.169 18.827V23.1569H225.07C226.299 23.1569 226.503 22.0176 226.503 20.9919V20.2903H228.404V28.1282H226.503V27.4266C226.503 26.4043 226.299 25.2617 225.07 25.2617H223.169V29.7352C223.169 31.4625 223.87 31.7832 225.009 31.7832H227.993C231.24 31.7832 232.233 29.5013 232.293 26.578H233.99V33.7143H216.677L216.684 33.7176Z" fill="#13556A"/>
    <path d="M82.5682 33.7176H71.6901V31.7866H72.0108C73.3839 31.7866 73.855 31.4057 73.855 29.7686V18.7702C73.855 17.7746 73.3572 16.8692 72.5086 16.5184L71.3092 16.0206V14.9081H79.7618C83.3299 14.9081 88.5953 15.0551 88.5953 19.8493C88.5953 22.0711 86.4303 23.7983 84.4725 24.089C87.309 24.4999 90.0887 25.9332 90.0887 29.2374C90.0887 33.2165 85.4982 33.7109 82.5715 33.7109L82.5682 33.7176ZM80.9011 16.8425H79.6716C78.4421 16.8425 78.1815 17.8381 78.1815 18.8304V23.3039H80.7541C82.8021 23.3039 84.2921 22.1045 84.2921 19.9997C84.2921 18.1856 82.919 16.8391 80.9011 16.8391V16.8425ZM81.4289 25.1481H78.1815V29.6216C78.1815 30.6439 78.2985 31.7866 79.6148 31.7866H81.7196C83.7375 31.7866 85.2009 30.7642 85.2009 28.773C85.2009 26.5212 83.4168 25.1447 81.4289 25.1447V25.1481Z" fill="#13556A"/>
    <path d="M127.631 16.8425C126.695 16.8425 126.258 17.0196 125.7 17.9818L120.465 27.0792V29.7419C120.465 31.4692 121.166 31.7599 122.336 31.7599H124.063V33.721H113.358V31.7899H114.294C115.697 31.7899 116.165 31.4091 116.165 29.772V27.4033L110.549 18.2491C109.817 17.0797 109.262 16.5519 108.003 15.9973V14.9148H117.304V16.8459H116.192C115.724 16.8459 115.226 17.0497 115.226 17.6076C115.226 17.8715 115.373 18.1355 115.49 18.3393L119.058 24.4231L122.566 18.3693C122.683 18.1355 122.83 17.9016 122.83 17.6377C122.83 17.0831 122.362 16.8759 121.895 16.8759H120.782V14.9148H128.065V16.8459H127.628L127.631 16.8425Z" fill="#13556A"/>
    <path d="M102.226 33.7176V31.7565H103.483C104.154 31.7565 104.418 31.4925 104.418 31.085C104.418 30.8812 104.361 30.5871 104.271 30.3533L103.964 29.6784C103.77 29.2575 103.426 28.9234 102.998 28.7429L97.1347 26.6348L95.6112 30.1762C95.4943 30.4101 95.4642 30.6139 95.4642 30.7909C95.4642 31.4057 95.962 31.7264 96.7204 31.7264H98.0067V33.7143H90.7535V31.7531H91.3983C92.3037 31.7531 92.5108 31.1985 92.8015 30.4669L98.8252 14.9081H103.272L108.771 30.086C109.065 30.9045 109.356 31.7231 110.352 31.7231H111.113V33.7109H102.223L102.226 33.7176ZM100.152 18.4495L97.9499 24.5567L102.273 26.2974C102.554 26.3909 102.821 26.1203 102.721 25.8397L100.152 18.4495Z" fill="#13556A"/>
    <path d="M94.7961 25.5022C94.7961 25.5022 92.5576 24.6503 91.0007 21.6534C89.4873 18.7435 91.689 16.1943 92.8383 16.1509C93.9876 16.1075 94.5856 16.8458 94.6758 17.1732C94.766 17.5006 94.4987 18.6232 93.8172 18.964C93.1356 19.3047 92.4808 18.4595 92.4039 18.4394C92.3271 18.4194 91.7257 18.7635 91.9529 20.1266C92.1801 21.4897 97.8497 24.9777 97.8497 24.9777L94.7994 25.4989L94.7961 25.5022Z" fill="#13556A"/>
  </g>
  <defs>
    <clipPath id="clip0_1058_5075">
      <rect width="234" height="47.5016" fill="white" transform="translate(0 0.749146)"/>
    </clipPath>
  </defs>
</svg>