<svg xmlns="http://www.w3.org/2000/svg" width="20" height="25" viewBox="0 0 20 25" fill="none">
  <g clip-path="url(#clip0_229_2970)">
    <path d="M10.4373 0.723633C4.11538 0.723633 0.769043 4.96143 0.769043 9.57268C0.769043 11.7277 1.91215 14.3887 3.74327 15.2441C4.02034 15.3766 4.17695 15.3163 4.23719 15.0526C4.28537 14.8465 4.53836 13.848 4.64678 13.3902C4.68292 13.2456 4.67087 13.1131 4.5504 12.9699C3.94806 12.235 3.46619 10.8871 3.46619 9.63426C3.46619 6.40705 5.91035 3.28826 10.0759 3.28826C13.6765 3.28826 16.1916 5.73243 16.1916 9.23671C16.1916 13.1854 14.1932 15.9307 11.5924 15.9307C10.1602 15.9307 9.07599 14.7394 9.42535 13.2818C9.84698 11.5363 10.6421 9.65835 10.6421 8.40682C10.6421 7.28647 10.0397 6.34682 8.7882 6.34682C7.31983 6.34682 6.13924 7.86338 6.13924 9.89929C6.13924 11.187 6.57293 12.0664 6.57293 12.0664C6.57293 12.0664 5.12865 18.1955 4.86228 19.3386C4.57316 20.6035 4.67756 22.7546 4.81409 23.5403C4.89039 23.9807 5.60115 24.2337 5.78989 23.9137C6.07499 23.4292 7.28235 21.3491 7.60762 20.0735C7.78832 19.3868 8.52183 16.5933 8.52183 16.5933C8.99166 17.5089 10.3878 18.2799 11.8695 18.2799C16.276 18.2799 19.455 14.2228 19.455 9.17782C19.455 4.13288 15.5063 0.723633 10.4373 0.723633Z" fill="#121212"/>
  </g>
  <defs>
    <clipPath id="clip0_229_2970">
      <rect width="18.6859" height="23.3333" fill="white" transform="translate(0.769043 0.723633)"/>
    </clipPath>
  </defs>
</svg>