<svg xmlns="http://www.w3.org/2000/svg" width="24" height="25" viewBox="0 0 24 25" fill="none">
  <path fill-rule="evenodd" clip-rule="evenodd" d="M10.8 4.70005C9.0496 4.70005 7.37086 5.3954 6.13312 6.63314C4.89538 7.87088 4.20002 9.54962 4.20002 11.3C4.20002 13.0505 4.89538 14.7292 6.13312 15.967C7.37086 17.2047 9.0496 17.9 10.8 17.9C12.5505 17.9 14.2292 17.2047 15.4669 15.967C16.7047 14.7292 17.4 13.0505 17.4 11.3C17.4 9.54962 16.7047 7.87088 15.4669 6.63314C14.2292 5.3954 12.5505 4.70005 10.8 4.70005ZM2.40002 11.3C2.40014 9.95685 2.72236 8.63327 3.33966 7.44032C3.95696 6.24738 4.85134 5.21986 5.94777 4.44396C7.0442 3.66807 8.31071 3.16642 9.64106 2.98109C10.9714 2.79577 12.3268 2.93218 13.5936 3.37888C14.8603 3.82557 16.0014 4.56953 16.9213 5.54835C17.8411 6.52716 18.5128 7.71229 18.88 9.00432C19.2472 10.2963 19.2993 11.6576 19.0317 12.9739C18.7642 14.2902 18.1849 15.5231 17.3424 16.5692L21.336 20.564C21.4244 20.6464 21.4954 20.7458 21.5446 20.8562C21.5938 20.9666 21.6202 21.0858 21.6223 21.2066C21.6245 21.3275 21.6022 21.4475 21.557 21.5596C21.5117 21.6716 21.4443 21.7734 21.3589 21.8589C21.2734 21.9444 21.1716 22.0117 21.0595 22.057C20.9475 22.1023 20.8274 22.1245 20.7066 22.1224C20.5858 22.1202 20.4666 22.0938 20.3562 22.0446C20.2458 21.9954 20.1464 21.9245 20.064 21.836L16.0692 17.8424C14.8351 18.8365 13.3449 19.4612 11.7708 19.6443C10.1968 19.8275 8.60297 19.5616 7.17356 18.8775C5.74415 18.1933 4.53743 17.1188 3.69275 15.778C2.84808 14.4372 2.39992 12.8847 2.40002 11.3Z" fill="#121212"/>
</svg>