<svg width="21" height="25" viewBox="0 0 21 25" fill="none" xmlns="http://www.w3.org/2000/svg">
<g clip-path="url(#clip0_229_2950)">
<path d="M17.8065 5.46866C16.4861 4.64599 15.5351 3.28648 15.2562 1.69551C15.2298 1.54352 15.2088 1.39014 15.1949 1.23676V0.723633H11.1763V16.6752C11.1694 18.5353 9.65926 20.0398 7.79778 20.0398C7.25119 20.0398 6.73527 19.9101 6.27792 19.68C5.17498 19.1237 4.41923 17.9817 4.41923 16.664C4.41923 14.7998 5.93212 13.2869 7.79778 13.2869C8.15474 13.2869 8.50054 13.3427 8.82403 13.4444V9.36174C8.48799 9.31572 8.14916 9.29202 7.81033 9.29202C3.73041 9.29341 0.422974 12.5995 0.422974 16.6752C0.422974 19.2311 1.72252 21.483 3.69695 22.8076C4.8724 23.5968 6.28768 24.0556 7.80893 24.0556C11.8875 24.0556 15.1949 20.7509 15.1949 16.6738V8.52372C16.765 9.64479 18.6878 10.3043 20.764 10.3043V6.31086C19.7182 6.31225 18.6948 6.01944 17.8065 5.46727V5.46866Z" fill="#121212"/>
</g>
<defs>
<clipPath id="clip0_229_2950">
<rect width="20.341" height="23.3333" fill="white" transform="translate(0.422974 0.723633)"/>
</clipPath>
</defs>
</svg>
