<svg xmlns="http://www.w3.org/2000/svg" width="15" height="15" viewBox="0 0 15 15" fill="none">
  <g clip-path="url(#clip0_490_5840)">
    <path d="M7.5 0C3.35783 0 0 3.35783 0 7.5C0 11.6422 3.35783 15 7.5 15C11.6422 15 15 11.6422 15 7.5C15 3.35783 11.6422 0 7.5 0ZM9.77259 9.77259C9.55301 9.99217 9.19699 9.99217 8.97696 9.77259L7.10196 7.89759C6.99623 7.79232 6.93705 7.6491 6.93705 7.5V4.5C6.93705 4.18916 7.1887 3.9375 7.49955 3.9375C7.81039 3.9375 8.06205 4.18916 8.06205 4.5V7.26687L9.77214 8.97696C9.99172 9.19654 9.99172 9.55256 9.77214 9.77259H9.77259Z" fill="#1E708A"/>
  </g>
  <defs>
    <clipPath id="clip0_490_5840">
      <rect width="15" height="15" fill="white"/>
    </clipPath>
  </defs>
</svg>