<svg width="372" height="280" viewBox="0 0 372 280" fill="none" xmlns="http://www.w3.org/2000/svg">
<path d="M156.227 63.6883L187.934 0.984695C188.288 0.157574 189.43 -0.196906 190.435 0.098494C190.907 0.236347 191.321 0.590828 191.518 0.984695C219.266 53.6053 247.211 106.364 275.431 159.26C279.252 166.389 279.134 173.085 275.018 179.229C273.58 181.336 272.221 181.336 270.961 179.131L224.997 98.8409C224.347 97.7578 222.791 97.3245 221.471 97.8169C220.881 98.0532 220.388 98.5062 220.152 99.0379L165.601 226.69C164.4 229.487 162.608 229.743 160.284 227.517L156.759 224.169C154.79 222.299 153.293 222.555 152.289 224.859L128.243 277.381C127.534 278.996 126.097 279.783 124.009 279.783H28.8705C26.7239 279.783 26.015 278.956 26.7239 277.282L63.4323 195.713C64.3185 193.704 66.1106 192.758 68.7495 192.916L83.7952 193.842C86.0009 193.979 87.4976 193.211 88.2656 191.478L144.077 67.0362C144.845 65.3229 146.4 64.4761 148.665 64.6336L153.805 64.9684C155.006 65.0078 155.834 64.6336 156.247 63.6883H156.227Z" fill="#13556A"/>
<path d="M0.334838 275.904L87.537 95.7491C87.9505 94.8629 89.0928 94.4691 90.1562 94.8235C90.6879 94.9614 91.0424 95.3159 91.2984 95.7097L105.497 122.355C106.384 124.029 106.384 125.742 105.615 127.475L81.0776 180.588C80.1914 182.597 78.4584 183.385 75.9376 182.951C58.0954 179.899 57.8 188.111 52.6601 198.155C39.4655 223.973 26.5861 249.889 13.9823 275.845C12.013 279.921 8.01524 281.064 1.98908 279.134C0.137904 278.543 -0.452896 277.46 0.315144 275.943L0.334838 275.904Z" fill="#DE9300"/>
<path d="M170.564 249.397L222.2 128.479C222.673 127.357 224.229 126.707 225.607 127.101C226.257 127.298 226.867 127.692 227.163 128.223L270.311 201.68C270.961 202.763 272.576 203.196 273.895 202.664C274.427 202.428 274.84 202.073 275.156 201.64L296.464 161.663C297.055 160.54 298.61 159.989 299.989 160.481C300.58 160.678 301.072 161.072 301.367 161.564L371.023 276.573C371.673 277.657 371.141 278.976 369.821 279.527C369.467 279.665 368.994 279.764 368.561 279.764H143.486C141.989 279.764 140.807 278.779 140.807 277.558C140.807 277.322 140.867 277.026 140.985 276.77L154.593 247.014C155.125 245.891 156.68 245.3 158.059 245.734C158.236 245.773 158.413 245.871 158.591 245.97L166.527 250.44C167.728 251.13 169.383 250.874 170.288 249.909C170.407 249.771 170.525 249.574 170.584 249.377L170.564 249.397Z" fill="#DE9300"/>
</svg>
