<svg width="20" height="26" viewBox="0 0 20 26" fill="none" xmlns="http://www.w3.org/2000/svg">
<g clip-path="url(#clip0_229_2966)">
<path d="M4.02218 2.02887C5.28292 1.03762 7.70704 0.753681 8.70458 0.947158C9.70274 1.13938 10.2241 1.69782 10.2304 2.37751L10.2882 11.0469C10.2926 11.7279 9.93894 12.3535 9.50173 12.4377C9.06264 12.52 8.41562 12.1154 8.06007 11.5363L3.51148 4.10247C3.15844 3.52267 2.44735 3.267 4.02155 2.02824L4.02218 2.02887ZM2.51206 18.514L7.09143 16.8933C7.72965 16.6665 8.30129 16.0371 8.36536 15.49C8.42755 14.9428 7.96333 14.2939 7.33453 14.0446L2.49698 12.1261C1.86692 11.8774 1.14076 12.4672 0.949163 13.4333C0.949163 13.4333 0.834207 16.7966 0.949163 17.4932C1.06537 18.1886 1.87383 18.7408 2.51268 18.5134L2.51206 18.514ZM10.4999 19.3237C10.5131 18.6409 10.1487 18.0517 9.68955 18.0102C9.23036 17.9675 8.50168 18.3595 8.06635 18.879L4.8721 22.7096C4.4374 23.2303 4.65349 24.4527 5.28732 24.6845L8.62731 25.8448C9.26302 26.0759 10.3831 25.3912 10.3962 24.7109L10.4999 19.3243V19.3237ZM18.4406 18.4317L14.4348 17.2803C13.7852 17.0937 13.0484 17.1113 12.7984 17.3224C12.5484 17.5315 12.6106 18.1911 12.9372 18.7873L15.465 23.4137C15.7916 24.0092 17.0995 23.9075 17.4594 23.3289C17.4594 23.3289 18.9834 21.0807 19.2635 20.2383C19.5437 19.3934 19.0889 18.6176 18.44 18.4305L18.4406 18.4317ZM19.4162 11.9264C19.2359 11.3409 17.9833 9.61531 17.3049 9.02734C16.6271 8.43811 15.8519 8.51161 15.4153 9.02922L12.8336 12.1048C12.3963 12.6224 12.2795 13.4428 12.571 13.9252C12.8618 14.4076 13.6395 14.6815 14.2991 14.5333L18.7641 13.7053C19.5701 13.5119 19.5983 12.5118 19.4149 11.9264H19.4162Z" fill="#121212"/>
</g>
<defs>
<clipPath id="clip0_229_2966">
<rect width="18.6109" height="25" fill="white" transform="translate(0.897583 0.890137)"/>
</clipPath>
</defs>
</svg>
