<svg xmlns="http://www.w3.org/2000/svg" width="100" height="100" viewBox="0 0 100 100" fill="none">
  <path d="M50.499 22V79" stroke="#13556A" stroke-width="4" stroke-linecap="round"/>
  <path d="M50.499 22V79" stroke="black" stroke-opacity="0.2" stroke-width="4" stroke-linecap="round"/>
  <path d="M50.499 22V79" stroke="black" stroke-opacity="0.2" stroke-width="4" stroke-linecap="round"/>
  <path d="M50.499 22V79" stroke="black" stroke-opacity="0.2" stroke-width="4" stroke-linecap="round"/>
  <path d="M50.499 22V79" stroke="black" stroke-opacity="0.2" stroke-width="4" stroke-linecap="round"/>
  <path d="M64.749 38.625C64.749 32.0666 58.3693 26.75 50.499 26.75C42.6287 26.75 36.249 32.0666 36.249 38.625C36.249 45.1833 42.6287 50.5 50.499 50.5C58.3693 50.5 64.749 55.8167 64.749 62.375C64.749 68.9333 58.3693 74.25 50.499 74.25C42.6287 74.25 36.249 68.9333 36.249 62.375" stroke="#13556A" stroke-width="4" stroke-linecap="round"/>
  <path d="M64.749 38.625C64.749 32.0666 58.3693 26.75 50.499 26.75C42.6287 26.75 36.249 32.0666 36.249 38.625C36.249 45.1833 42.6287 50.5 50.499 50.5C58.3693 50.5 64.749 55.8167 64.749 62.375C64.749 68.9333 58.3693 74.25 50.499 74.25C42.6287 74.25 36.249 68.9333 36.249 62.375" stroke="black" stroke-opacity="0.2" stroke-width="4" stroke-linecap="round"/>
  <path d="M64.749 38.625C64.749 32.0666 58.3693 26.75 50.499 26.75C42.6287 26.75 36.249 32.0666 36.249 38.625C36.249 45.1833 42.6287 50.5 50.499 50.5C58.3693 50.5 64.749 55.8167 64.749 62.375C64.749 68.9333 58.3693 74.25 50.499 74.25C42.6287 74.25 36.249 68.9333 36.249 62.375" stroke="black" stroke-opacity="0.2" stroke-width="4" stroke-linecap="round"/>
  <path d="M64.749 38.625C64.749 32.0666 58.3693 26.75 50.499 26.75C42.6287 26.75 36.249 32.0666 36.249 38.625C36.249 45.1833 42.6287 50.5 50.499 50.5C58.3693 50.5 64.749 55.8167 64.749 62.375C64.749 68.9333 58.3693 74.25 50.499 74.25C42.6287 74.25 36.249 68.9333 36.249 62.375" stroke="black" stroke-opacity="0.2" stroke-width="4" stroke-linecap="round"/>
  <path d="M64.749 38.625C64.749 32.0666 58.3693 26.75 50.499 26.75C42.6287 26.75 36.249 32.0666 36.249 38.625C36.249 45.1833 42.6287 50.5 50.499 50.5C58.3693 50.5 64.749 55.8167 64.749 62.375C64.749 68.9333 58.3693 74.25 50.499 74.25C42.6287 74.25 36.249 68.9333 36.249 62.375" stroke="black" stroke-opacity="0.2" stroke-width="4" stroke-linecap="round"/>
  <path d="M26.75 9.35465C33.7366 5.31311 41.8483 3 50.5 3C76.7333 3 98 24.2665 98 50.5C98 76.7333 76.7333 98 50.5 98C24.2665 98 3 76.7333 3 50.5C3 41.8483 5.31311 33.7366 9.35465 26.75" stroke="#13556A" stroke-width="4" stroke-linecap="round"/>
  <path d="M26.75 9.35465C33.7366 5.31311 41.8483 3 50.5 3C76.7333 3 98 24.2665 98 50.5C98 76.7333 76.7333 98 50.5 98C24.2665 98 3 76.7333 3 50.5C3 41.8483 5.31311 33.7366 9.35465 26.75" stroke="black" stroke-opacity="0.2" stroke-width="4" stroke-linecap="round"/>
  <path d="M26.75 9.35465C33.7366 5.31311 41.8483 3 50.5 3C76.7333 3 98 24.2665 98 50.5C98 76.7333 76.7333 98 50.5 98C24.2665 98 3 76.7333 3 50.5C3 41.8483 5.31311 33.7366 9.35465 26.75" stroke="black" stroke-opacity="0.2" stroke-width="4" stroke-linecap="round"/>
  <path d="M26.75 9.35465C33.7366 5.31311 41.8483 3 50.5 3C76.7333 3 98 24.2665 98 50.5C98 76.7333 76.7333 98 50.5 98C24.2665 98 3 76.7333 3 50.5C3 41.8483 5.31311 33.7366 9.35465 26.75" stroke="black" stroke-opacity="0.2" stroke-width="4" stroke-linecap="round"/>
  <path d="M26.75 9.35465C33.7366 5.31311 41.8483 3 50.5 3C76.7333 3 98 24.2665 98 50.5C98 76.7333 76.7333 98 50.5 98C24.2665 98 3 76.7333 3 50.5C3 41.8483 5.31311 33.7366 9.35465 26.75" stroke="black" stroke-opacity="0.2" stroke-width="4" stroke-linecap="round"/>
</svg>