<svg xmlns="http://www.w3.org/2000/svg" width="101" height="100" viewBox="0 0 101 100" fill="none">
  <g clip-path="url(#clip0_507_5840)">
    <path d="M85.6664 76.666C81.0715 76.666 77.333 80.4043 77.333 84.9994C77.333 89.5945 81.0713 93.3328 85.6664 93.3328C90.2613 93.3328 93.9998 89.5945 93.9998 84.9994C93.9998 80.4043 90.2613 76.666 85.6664 76.666ZM85.6664 89.9994C82.9098 89.9994 80.6664 87.7561 80.6664 84.9994C80.6664 82.2428 82.9098 79.9994 85.6664 79.9994C88.4231 79.9994 90.6664 82.2428 90.6664 84.9994C90.6664 87.7561 88.4231 89.9994 85.6664 89.9994Z" fill="#13556A"/>
    <path d="M85.6664 76.666C81.0715 76.666 77.333 80.4043 77.333 84.9994C77.333 89.5945 81.0713 93.3328 85.6664 93.3328C90.2613 93.3328 93.9998 89.5945 93.9998 84.9994C93.9998 80.4043 90.2613 76.666 85.6664 76.666ZM85.6664 89.9994C82.9098 89.9994 80.6664 87.7561 80.6664 84.9994C80.6664 82.2428 82.9098 79.9994 85.6664 79.9994C88.4231 79.9994 90.6664 82.2428 90.6664 84.9994C90.6664 87.7561 88.4231 89.9994 85.6664 89.9994Z" fill="black" fill-opacity="0.2"/>
    <path d="M85.6664 76.666C81.0715 76.666 77.333 80.4043 77.333 84.9994C77.333 89.5945 81.0713 93.3328 85.6664 93.3328C90.2613 93.3328 93.9998 89.5945 93.9998 84.9994C93.9998 80.4043 90.2613 76.666 85.6664 76.666ZM85.6664 89.9994C82.9098 89.9994 80.6664 87.7561 80.6664 84.9994C80.6664 82.2428 82.9098 79.9994 85.6664 79.9994C88.4231 79.9994 90.6664 82.2428 90.6664 84.9994C90.6664 87.7561 88.4231 89.9994 85.6664 89.9994Z" fill="black" fill-opacity="0.2"/>
    <path d="M85.6664 76.666C81.0715 76.666 77.333 80.4043 77.333 84.9994C77.333 89.5945 81.0713 93.3328 85.6664 93.3328C90.2613 93.3328 93.9998 89.5945 93.9998 84.9994C93.9998 80.4043 90.2613 76.666 85.6664 76.666ZM85.6664 89.9994C82.9098 89.9994 80.6664 87.7561 80.6664 84.9994C80.6664 82.2428 82.9098 79.9994 85.6664 79.9994C88.4231 79.9994 90.6664 82.2428 90.6664 84.9994C90.6664 87.7561 88.4231 89.9994 85.6664 89.9994Z" fill="black" fill-opacity="0.2"/>
    <path d="M85.6664 76.666C81.0715 76.666 77.333 80.4043 77.333 84.9994C77.333 89.5945 81.0713 93.3328 85.6664 93.3328C90.2613 93.3328 93.9998 89.5945 93.9998 84.9994C93.9998 80.4043 90.2613 76.666 85.6664 76.666ZM85.6664 89.9994C82.9098 89.9994 80.6664 87.7561 80.6664 84.9994C80.6664 82.2428 82.9098 79.9994 85.6664 79.9994C88.4231 79.9994 90.6664 82.2428 90.6664 84.9994C90.6664 87.7561 88.4231 89.9994 85.6664 89.9994Z" fill="black" fill-opacity="0.2"/>
    <path d="M97.3329 75.591V19.9994C97.3329 18.1611 95.838 16.666 93.9995 16.666H77.3329C75.4946 16.666 73.9995 18.1609 73.9995 19.9994V64.9994C73.9995 65.9193 74.7444 66.666 75.6661 66.666H78.9995C79.9212 66.666 80.6661 65.9193 80.6661 64.9994C80.6661 64.0795 79.9212 63.3328 78.9995 63.3328H77.3329V59.9994H78.9995C79.9212 59.9994 80.6661 59.2527 80.6661 58.3328C80.6661 57.4129 79.9212 56.6662 78.9995 56.6662H77.3329V53.3328H82.3329C83.2546 53.3328 83.9995 52.5861 83.9995 51.6662C83.9995 50.7463 83.2546 49.9994 82.3329 49.9994H77.3329V46.666H78.9995C79.9212 46.666 80.6661 45.9193 80.6661 44.9994C80.6661 44.0795 79.9212 43.3328 78.9995 43.3328H77.3329V39.9994H78.9995C79.9212 39.9994 80.6661 39.2527 80.6661 38.3328C80.6661 37.4129 79.9212 36.6662 78.9995 36.6662H77.3329V33.3328H78.9995C79.9212 33.3328 80.6661 32.5861 80.6661 31.6662C80.6661 30.7463 79.9212 29.9996 78.9995 29.9996H77.3329V26.6662H82.3329C83.2546 26.6662 83.9995 25.9195 83.9995 24.9996C83.9995 24.0797 83.2546 23.333 82.3329 23.333H77.3329V19.9994H93.9995V72.5361C91.6128 70.9344 88.7495 69.9994 85.6661 69.9994C77.3944 69.9994 70.6661 76.7295 70.6661 84.9994C70.6661 88.0811 71.6028 90.9477 73.2011 93.3328H27.3329V76.6662H30.6663V81.6662C30.6663 82.5861 31.413 83.3328 32.3329 83.3328C33.2528 83.3328 33.9995 82.5861 33.9995 81.6662V76.6662H37.3329V78.3328C37.3329 79.2527 38.0796 79.9994 38.9995 79.9994C39.9194 79.9994 40.6661 79.2527 40.6661 78.3328V76.6662H43.9995V78.3328C43.9995 79.2527 44.7462 79.9994 45.6661 79.9994C46.586 79.9994 47.3327 79.2527 47.3327 78.3328V76.6662H50.6663V78.3328C50.6663 79.2527 51.413 79.9994 52.3329 79.9994C53.2546 79.9994 53.9995 79.2527 53.9995 78.3328V76.6662H57.3329V81.6662C57.3329 82.5861 58.0778 83.3328 58.9995 83.3328C59.9212 83.3328 60.6661 82.5861 60.6661 81.6662V76.6662H63.9995V78.3328C63.9995 79.2527 64.7444 79.9994 65.6661 79.9994C66.5878 79.9994 67.3327 79.2527 67.3327 78.3328V74.9994C67.3327 74.0795 66.5878 73.3328 65.6661 73.3328H27.3329C25.4013 73.3328 23.9995 74.7346 23.9995 76.6662V93.3328C23.9995 95.2645 25.4013 96.6662 27.3329 96.6662H76.2579C78.8329 98.7461 82.1046 99.9994 85.6663 99.9994C93.938 99.9994 100.666 93.2693 100.666 84.9994C100.666 81.4377 99.413 78.1678 97.3329 75.591ZM85.6663 96.666C79.2347 96.666 73.9997 91.4326 73.9997 84.9994C73.9997 78.5662 79.2347 73.3328 85.6663 73.3328C92.098 73.3328 97.3329 78.5662 97.3329 84.9994C97.3329 91.4326 92.098 96.666 85.6663 96.666Z" fill="#13556A"/>
    <path d="M97.3329 75.591V19.9994C97.3329 18.1611 95.838 16.666 93.9995 16.666H77.3329C75.4946 16.666 73.9995 18.1609 73.9995 19.9994V64.9994C73.9995 65.9193 74.7444 66.666 75.6661 66.666H78.9995C79.9212 66.666 80.6661 65.9193 80.6661 64.9994C80.6661 64.0795 79.9212 63.3328 78.9995 63.3328H77.3329V59.9994H78.9995C79.9212 59.9994 80.6661 59.2527 80.6661 58.3328C80.6661 57.4129 79.9212 56.6662 78.9995 56.6662H77.3329V53.3328H82.3329C83.2546 53.3328 83.9995 52.5861 83.9995 51.6662C83.9995 50.7463 83.2546 49.9994 82.3329 49.9994H77.3329V46.666H78.9995C79.9212 46.666 80.6661 45.9193 80.6661 44.9994C80.6661 44.0795 79.9212 43.3328 78.9995 43.3328H77.3329V39.9994H78.9995C79.9212 39.9994 80.6661 39.2527 80.6661 38.3328C80.6661 37.4129 79.9212 36.6662 78.9995 36.6662H77.3329V33.3328H78.9995C79.9212 33.3328 80.6661 32.5861 80.6661 31.6662C80.6661 30.7463 79.9212 29.9996 78.9995 29.9996H77.3329V26.6662H82.3329C83.2546 26.6662 83.9995 25.9195 83.9995 24.9996C83.9995 24.0797 83.2546 23.333 82.3329 23.333H77.3329V19.9994H93.9995V72.5361C91.6128 70.9344 88.7495 69.9994 85.6661 69.9994C77.3944 69.9994 70.6661 76.7295 70.6661 84.9994C70.6661 88.0811 71.6028 90.9477 73.2011 93.3328H27.3329V76.6662H30.6663V81.6662C30.6663 82.5861 31.413 83.3328 32.3329 83.3328C33.2528 83.3328 33.9995 82.5861 33.9995 81.6662V76.6662H37.3329V78.3328C37.3329 79.2527 38.0796 79.9994 38.9995 79.9994C39.9194 79.9994 40.6661 79.2527 40.6661 78.3328V76.6662H43.9995V78.3328C43.9995 79.2527 44.7462 79.9994 45.6661 79.9994C46.586 79.9994 47.3327 79.2527 47.3327 78.3328V76.6662H50.6663V78.3328C50.6663 79.2527 51.413 79.9994 52.3329 79.9994C53.2546 79.9994 53.9995 79.2527 53.9995 78.3328V76.6662H57.3329V81.6662C57.3329 82.5861 58.0778 83.3328 58.9995 83.3328C59.9212 83.3328 60.6661 82.5861 60.6661 81.6662V76.6662H63.9995V78.3328C63.9995 79.2527 64.7444 79.9994 65.6661 79.9994C66.5878 79.9994 67.3327 79.2527 67.3327 78.3328V74.9994C67.3327 74.0795 66.5878 73.3328 65.6661 73.3328H27.3329C25.4013 73.3328 23.9995 74.7346 23.9995 76.6662V93.3328C23.9995 95.2645 25.4013 96.6662 27.3329 96.6662H76.2579C78.8329 98.7461 82.1046 99.9994 85.6663 99.9994C93.938 99.9994 100.666 93.2693 100.666 84.9994C100.666 81.4377 99.413 78.1678 97.3329 75.591ZM85.6663 96.666C79.2347 96.666 73.9997 91.4326 73.9997 84.9994C73.9997 78.5662 79.2347 73.3328 85.6663 73.3328C92.098 73.3328 97.3329 78.5662 97.3329 84.9994C97.3329 91.4326 92.098 96.666 85.6663 96.666Z" fill="black" fill-opacity="0.2"/>
    <path d="M97.3329 75.591V19.9994C97.3329 18.1611 95.838 16.666 93.9995 16.666H77.3329C75.4946 16.666 73.9995 18.1609 73.9995 19.9994V64.9994C73.9995 65.9193 74.7444 66.666 75.6661 66.666H78.9995C79.9212 66.666 80.6661 65.9193 80.6661 64.9994C80.6661 64.0795 79.9212 63.3328 78.9995 63.3328H77.3329V59.9994H78.9995C79.9212 59.9994 80.6661 59.2527 80.6661 58.3328C80.6661 57.4129 79.9212 56.6662 78.9995 56.6662H77.3329V53.3328H82.3329C83.2546 53.3328 83.9995 52.5861 83.9995 51.6662C83.9995 50.7463 83.2546 49.9994 82.3329 49.9994H77.3329V46.666H78.9995C79.9212 46.666 80.6661 45.9193 80.6661 44.9994C80.6661 44.0795 79.9212 43.3328 78.9995 43.3328H77.3329V39.9994H78.9995C79.9212 39.9994 80.6661 39.2527 80.6661 38.3328C80.6661 37.4129 79.9212 36.6662 78.9995 36.6662H77.3329V33.3328H78.9995C79.9212 33.3328 80.6661 32.5861 80.6661 31.6662C80.6661 30.7463 79.9212 29.9996 78.9995 29.9996H77.3329V26.6662H82.3329C83.2546 26.6662 83.9995 25.9195 83.9995 24.9996C83.9995 24.0797 83.2546 23.333 82.3329 23.333H77.3329V19.9994H93.9995V72.5361C91.6128 70.9344 88.7495 69.9994 85.6661 69.9994C77.3944 69.9994 70.6661 76.7295 70.6661 84.9994C70.6661 88.0811 71.6028 90.9477 73.2011 93.3328H27.3329V76.6662H30.6663V81.6662C30.6663 82.5861 31.413 83.3328 32.3329 83.3328C33.2528 83.3328 33.9995 82.5861 33.9995 81.6662V76.6662H37.3329V78.3328C37.3329 79.2527 38.0796 79.9994 38.9995 79.9994C39.9194 79.9994 40.6661 79.2527 40.6661 78.3328V76.6662H43.9995V78.3328C43.9995 79.2527 44.7462 79.9994 45.6661 79.9994C46.586 79.9994 47.3327 79.2527 47.3327 78.3328V76.6662H50.6663V78.3328C50.6663 79.2527 51.413 79.9994 52.3329 79.9994C53.2546 79.9994 53.9995 79.2527 53.9995 78.3328V76.6662H57.3329V81.6662C57.3329 82.5861 58.0778 83.3328 58.9995 83.3328C59.9212 83.3328 60.6661 82.5861 60.6661 81.6662V76.6662H63.9995V78.3328C63.9995 79.2527 64.7444 79.9994 65.6661 79.9994C66.5878 79.9994 67.3327 79.2527 67.3327 78.3328V74.9994C67.3327 74.0795 66.5878 73.3328 65.6661 73.3328H27.3329C25.4013 73.3328 23.9995 74.7346 23.9995 76.6662V93.3328C23.9995 95.2645 25.4013 96.6662 27.3329 96.6662H76.2579C78.8329 98.7461 82.1046 99.9994 85.6663 99.9994C93.938 99.9994 100.666 93.2693 100.666 84.9994C100.666 81.4377 99.413 78.1678 97.3329 75.591ZM85.6663 96.666C79.2347 96.666 73.9997 91.4326 73.9997 84.9994C73.9997 78.5662 79.2347 73.3328 85.6663 73.3328C92.098 73.3328 97.3329 78.5662 97.3329 84.9994C97.3329 91.4326 92.098 96.666 85.6663 96.666Z" fill="black" fill-opacity="0.2"/>
    <path d="M97.3329 75.591V19.9994C97.3329 18.1611 95.838 16.666 93.9995 16.666H77.3329C75.4946 16.666 73.9995 18.1609 73.9995 19.9994V64.9994C73.9995 65.9193 74.7444 66.666 75.6661 66.666H78.9995C79.9212 66.666 80.6661 65.9193 80.6661 64.9994C80.6661 64.0795 79.9212 63.3328 78.9995 63.3328H77.3329V59.9994H78.9995C79.9212 59.9994 80.6661 59.2527 80.6661 58.3328C80.6661 57.4129 79.9212 56.6662 78.9995 56.6662H77.3329V53.3328H82.3329C83.2546 53.3328 83.9995 52.5861 83.9995 51.6662C83.9995 50.7463 83.2546 49.9994 82.3329 49.9994H77.3329V46.666H78.9995C79.9212 46.666 80.6661 45.9193 80.6661 44.9994C80.6661 44.0795 79.9212 43.3328 78.9995 43.3328H77.3329V39.9994H78.9995C79.9212 39.9994 80.6661 39.2527 80.6661 38.3328C80.6661 37.4129 79.9212 36.6662 78.9995 36.6662H77.3329V33.3328H78.9995C79.9212 33.3328 80.6661 32.5861 80.6661 31.6662C80.6661 30.7463 79.9212 29.9996 78.9995 29.9996H77.3329V26.6662H82.3329C83.2546 26.6662 83.9995 25.9195 83.9995 24.9996C83.9995 24.0797 83.2546 23.333 82.3329 23.333H77.3329V19.9994H93.9995V72.5361C91.6128 70.9344 88.7495 69.9994 85.6661 69.9994C77.3944 69.9994 70.6661 76.7295 70.6661 84.9994C70.6661 88.0811 71.6028 90.9477 73.2011 93.3328H27.3329V76.6662H30.6663V81.6662C30.6663 82.5861 31.413 83.3328 32.3329 83.3328C33.2528 83.3328 33.9995 82.5861 33.9995 81.6662V76.6662H37.3329V78.3328C37.3329 79.2527 38.0796 79.9994 38.9995 79.9994C39.9194 79.9994 40.6661 79.2527 40.6661 78.3328V76.6662H43.9995V78.3328C43.9995 79.2527 44.7462 79.9994 45.6661 79.9994C46.586 79.9994 47.3327 79.2527 47.3327 78.3328V76.6662H50.6663V78.3328C50.6663 79.2527 51.413 79.9994 52.3329 79.9994C53.2546 79.9994 53.9995 79.2527 53.9995 78.3328V76.6662H57.3329V81.6662C57.3329 82.5861 58.0778 83.3328 58.9995 83.3328C59.9212 83.3328 60.6661 82.5861 60.6661 81.6662V76.6662H63.9995V78.3328C63.9995 79.2527 64.7444 79.9994 65.6661 79.9994C66.5878 79.9994 67.3327 79.2527 67.3327 78.3328V74.9994C67.3327 74.0795 66.5878 73.3328 65.6661 73.3328H27.3329C25.4013 73.3328 23.9995 74.7346 23.9995 76.6662V93.3328C23.9995 95.2645 25.4013 96.6662 27.3329 96.6662H76.2579C78.8329 98.7461 82.1046 99.9994 85.6663 99.9994C93.938 99.9994 100.666 93.2693 100.666 84.9994C100.666 81.4377 99.413 78.1678 97.3329 75.591ZM85.6663 96.666C79.2347 96.666 73.9997 91.4326 73.9997 84.9994C73.9997 78.5662 79.2347 73.3328 85.6663 73.3328C92.098 73.3328 97.3329 78.5662 97.3329 84.9994C97.3329 91.4326 92.098 96.666 85.6663 96.666Z" fill="black" fill-opacity="0.2"/>
    <path d="M97.3329 75.591V19.9994C97.3329 18.1611 95.838 16.666 93.9995 16.666H77.3329C75.4946 16.666 73.9995 18.1609 73.9995 19.9994V64.9994C73.9995 65.9193 74.7444 66.666 75.6661 66.666H78.9995C79.9212 66.666 80.6661 65.9193 80.6661 64.9994C80.6661 64.0795 79.9212 63.3328 78.9995 63.3328H77.3329V59.9994H78.9995C79.9212 59.9994 80.6661 59.2527 80.6661 58.3328C80.6661 57.4129 79.9212 56.6662 78.9995 56.6662H77.3329V53.3328H82.3329C83.2546 53.3328 83.9995 52.5861 83.9995 51.6662C83.9995 50.7463 83.2546 49.9994 82.3329 49.9994H77.3329V46.666H78.9995C79.9212 46.666 80.6661 45.9193 80.6661 44.9994C80.6661 44.0795 79.9212 43.3328 78.9995 43.3328H77.3329V39.9994H78.9995C79.9212 39.9994 80.6661 39.2527 80.6661 38.3328C80.6661 37.4129 79.9212 36.6662 78.9995 36.6662H77.3329V33.3328H78.9995C79.9212 33.3328 80.6661 32.5861 80.6661 31.6662C80.6661 30.7463 79.9212 29.9996 78.9995 29.9996H77.3329V26.6662H82.3329C83.2546 26.6662 83.9995 25.9195 83.9995 24.9996C83.9995 24.0797 83.2546 23.333 82.3329 23.333H77.3329V19.9994H93.9995V72.5361C91.6128 70.9344 88.7495 69.9994 85.6661 69.9994C77.3944 69.9994 70.6661 76.7295 70.6661 84.9994C70.6661 88.0811 71.6028 90.9477 73.2011 93.3328H27.3329V76.6662H30.6663V81.6662C30.6663 82.5861 31.413 83.3328 32.3329 83.3328C33.2528 83.3328 33.9995 82.5861 33.9995 81.6662V76.6662H37.3329V78.3328C37.3329 79.2527 38.0796 79.9994 38.9995 79.9994C39.9194 79.9994 40.6661 79.2527 40.6661 78.3328V76.6662H43.9995V78.3328C43.9995 79.2527 44.7462 79.9994 45.6661 79.9994C46.586 79.9994 47.3327 79.2527 47.3327 78.3328V76.6662H50.6663V78.3328C50.6663 79.2527 51.413 79.9994 52.3329 79.9994C53.2546 79.9994 53.9995 79.2527 53.9995 78.3328V76.6662H57.3329V81.6662C57.3329 82.5861 58.0778 83.3328 58.9995 83.3328C59.9212 83.3328 60.6661 82.5861 60.6661 81.6662V76.6662H63.9995V78.3328C63.9995 79.2527 64.7444 79.9994 65.6661 79.9994C66.5878 79.9994 67.3327 79.2527 67.3327 78.3328V74.9994C67.3327 74.0795 66.5878 73.3328 65.6661 73.3328H27.3329C25.4013 73.3328 23.9995 74.7346 23.9995 76.6662V93.3328C23.9995 95.2645 25.4013 96.6662 27.3329 96.6662H76.2579C78.8329 98.7461 82.1046 99.9994 85.6663 99.9994C93.938 99.9994 100.666 93.2693 100.666 84.9994C100.666 81.4377 99.413 78.1678 97.3329 75.591ZM85.6663 96.666C79.2347 96.666 73.9997 91.4326 73.9997 84.9994C73.9997 78.5662 79.2347 73.3328 85.6663 73.3328C92.098 73.3328 97.3329 78.5662 97.3329 84.9994C97.3329 91.4326 92.098 96.666 85.6663 96.666Z" fill="black" fill-opacity="0.2"/>
    <path d="M87.3331 11.6666C87.3331 10.7467 86.5882 10 85.6665 10H20.6665C20.6665 4.48496 16.1815 0 10.6665 0C5.15146 0 0.666504 4.48496 0.666504 10V90C0.666504 95.515 5.15146 100 10.6665 100H18.9999C19.9198 100 20.6665 99.2533 20.6665 98.3334C20.6665 97.4135 19.9198 96.6668 18.9999 96.6668H10.6665C6.98975 96.6668 3.9999 93.6768 3.9999 90.0002C3.9999 86.3236 6.98994 83.3336 10.6665 83.3336C14.3431 83.3336 17.3331 86.3236 17.3331 90.0002C17.3331 90.9201 18.0798 91.6668 18.9997 91.6668C19.9196 91.6668 20.6663 90.9201 20.6663 90.0002V13.3334H85.6663C86.5882 13.3334 87.3331 12.5867 87.3331 11.6666ZM17.3331 82.5666C15.5614 80.9768 13.2298 80 10.6665 80C8.10322 80 5.77158 80.9768 3.9999 82.5666V10C3.9999 6.32324 6.98994 3.3334 10.6665 3.3334C14.3431 3.3334 17.3331 6.32324 17.3331 10V82.5666Z" fill="#13556A"/>
    <path d="M87.3331 11.6666C87.3331 10.7467 86.5882 10 85.6665 10H20.6665C20.6665 4.48496 16.1815 0 10.6665 0C5.15146 0 0.666504 4.48496 0.666504 10V90C0.666504 95.515 5.15146 100 10.6665 100H18.9999C19.9198 100 20.6665 99.2533 20.6665 98.3334C20.6665 97.4135 19.9198 96.6668 18.9999 96.6668H10.6665C6.98975 96.6668 3.9999 93.6768 3.9999 90.0002C3.9999 86.3236 6.98994 83.3336 10.6665 83.3336C14.3431 83.3336 17.3331 86.3236 17.3331 90.0002C17.3331 90.9201 18.0798 91.6668 18.9997 91.6668C19.9196 91.6668 20.6663 90.9201 20.6663 90.0002V13.3334H85.6663C86.5882 13.3334 87.3331 12.5867 87.3331 11.6666ZM17.3331 82.5666C15.5614 80.9768 13.2298 80 10.6665 80C8.10322 80 5.77158 80.9768 3.9999 82.5666V10C3.9999 6.32324 6.98994 3.3334 10.6665 3.3334C14.3431 3.3334 17.3331 6.32324 17.3331 10V82.5666Z" fill="black" fill-opacity="0.2"/>
    <path d="M87.3331 11.6666C87.3331 10.7467 86.5882 10 85.6665 10H20.6665C20.6665 4.48496 16.1815 0 10.6665 0C5.15146 0 0.666504 4.48496 0.666504 10V90C0.666504 95.515 5.15146 100 10.6665 100H18.9999C19.9198 100 20.6665 99.2533 20.6665 98.3334C20.6665 97.4135 19.9198 96.6668 18.9999 96.6668H10.6665C6.98975 96.6668 3.9999 93.6768 3.9999 90.0002C3.9999 86.3236 6.98994 83.3336 10.6665 83.3336C14.3431 83.3336 17.3331 86.3236 17.3331 90.0002C17.3331 90.9201 18.0798 91.6668 18.9997 91.6668C19.9196 91.6668 20.6663 90.9201 20.6663 90.0002V13.3334H85.6663C86.5882 13.3334 87.3331 12.5867 87.3331 11.6666ZM17.3331 82.5666C15.5614 80.9768 13.2298 80 10.6665 80C8.10322 80 5.77158 80.9768 3.9999 82.5666V10C3.9999 6.32324 6.98994 3.3334 10.6665 3.3334C14.3431 3.3334 17.3331 6.32324 17.3331 10V82.5666Z" fill="black" fill-opacity="0.2"/>
    <path d="M87.3331 11.6666C87.3331 10.7467 86.5882 10 85.6665 10H20.6665C20.6665 4.48496 16.1815 0 10.6665 0C5.15146 0 0.666504 4.48496 0.666504 10V90C0.666504 95.515 5.15146 100 10.6665 100H18.9999C19.9198 100 20.6665 99.2533 20.6665 98.3334C20.6665 97.4135 19.9198 96.6668 18.9999 96.6668H10.6665C6.98975 96.6668 3.9999 93.6768 3.9999 90.0002C3.9999 86.3236 6.98994 83.3336 10.6665 83.3336C14.3431 83.3336 17.3331 86.3236 17.3331 90.0002C17.3331 90.9201 18.0798 91.6668 18.9997 91.6668C19.9196 91.6668 20.6663 90.9201 20.6663 90.0002V13.3334H85.6663C86.5882 13.3334 87.3331 12.5867 87.3331 11.6666ZM17.3331 82.5666C15.5614 80.9768 13.2298 80 10.6665 80C8.10322 80 5.77158 80.9768 3.9999 82.5666V10C3.9999 6.32324 6.98994 3.3334 10.6665 3.3334C14.3431 3.3334 17.3331 6.32324 17.3331 10V82.5666Z" fill="black" fill-opacity="0.2"/>
    <path d="M87.3331 11.6666C87.3331 10.7467 86.5882 10 85.6665 10H20.6665C20.6665 4.48496 16.1815 0 10.6665 0C5.15146 0 0.666504 4.48496 0.666504 10V90C0.666504 95.515 5.15146 100 10.6665 100H18.9999C19.9198 100 20.6665 99.2533 20.6665 98.3334C20.6665 97.4135 19.9198 96.6668 18.9999 96.6668H10.6665C6.98975 96.6668 3.9999 93.6768 3.9999 90.0002C3.9999 86.3236 6.98994 83.3336 10.6665 83.3336C14.3431 83.3336 17.3331 86.3236 17.3331 90.0002C17.3331 90.9201 18.0798 91.6668 18.9997 91.6668C19.9196 91.6668 20.6663 90.9201 20.6663 90.0002V13.3334H85.6663C86.5882 13.3334 87.3331 12.5867 87.3331 11.6666ZM17.3331 82.5666C15.5614 80.9768 13.2298 80 10.6665 80C8.10322 80 5.77158 80.9768 3.9999 82.5666V10C3.9999 6.32324 6.98994 3.3334 10.6665 3.3334C14.3431 3.3334 17.3331 6.32324 17.3331 10V82.5666Z" fill="black" fill-opacity="0.2"/>
    <path d="M64.4884 22.8442C64.8134 23.1692 65.2402 23.3325 65.6667 23.3325C66.0935 23.3325 66.5201 23.1692 66.8451 22.8442C67.4968 22.1925 67.4968 21.1392 66.8451 20.4876L63.5134 17.156C63.3583 17.0009 63.1751 16.8792 62.9701 16.7942C62.5634 16.6259 62.1035 16.6259 61.6968 16.7942C61.4917 16.8792 61.3085 17.0009 61.1535 17.156L57.8218 20.4876C57.1701 21.1394 57.1701 22.1927 57.8218 22.8442C58.4736 23.4958 59.5269 23.4958 60.1785 22.8442L60.6667 22.356V60.9759L60.1785 60.4876C59.5267 59.836 58.4734 59.836 57.8218 60.4876C57.1701 61.1394 57.1701 62.1927 57.8218 62.8442L61.1535 66.1759C61.3085 66.331 61.4917 66.4526 61.6968 66.5376C61.9001 66.6226 62.1167 66.6659 62.3335 66.6659C62.5501 66.6659 62.7669 66.6226 62.9703 66.5376C63.1753 66.4526 63.3585 66.331 63.5136 66.1759L66.8453 62.8442C67.497 62.1925 67.497 61.1392 66.8453 60.4876C66.1937 59.836 65.1402 59.836 64.4886 60.4876L64.0003 60.9759V22.356L64.4884 22.8442Z" fill="#13556A"/>
    <path d="M64.4884 22.8442C64.8134 23.1692 65.2402 23.3325 65.6667 23.3325C66.0935 23.3325 66.5201 23.1692 66.8451 22.8442C67.4968 22.1925 67.4968 21.1392 66.8451 20.4876L63.5134 17.156C63.3583 17.0009 63.1751 16.8792 62.9701 16.7942C62.5634 16.6259 62.1035 16.6259 61.6968 16.7942C61.4917 16.8792 61.3085 17.0009 61.1535 17.156L57.8218 20.4876C57.1701 21.1394 57.1701 22.1927 57.8218 22.8442C58.4736 23.4958 59.5269 23.4958 60.1785 22.8442L60.6667 22.356V60.9759L60.1785 60.4876C59.5267 59.836 58.4734 59.836 57.8218 60.4876C57.1701 61.1394 57.1701 62.1927 57.8218 62.8442L61.1535 66.1759C61.3085 66.331 61.4917 66.4526 61.6968 66.5376C61.9001 66.6226 62.1167 66.6659 62.3335 66.6659C62.5501 66.6659 62.7669 66.6226 62.9703 66.5376C63.1753 66.4526 63.3585 66.331 63.5136 66.1759L66.8453 62.8442C67.497 62.1925 67.497 61.1392 66.8453 60.4876C66.1937 59.836 65.1402 59.836 64.4886 60.4876L64.0003 60.9759V22.356L64.4884 22.8442Z" fill="black" fill-opacity="0.2"/>
    <path d="M64.4884 22.8442C64.8134 23.1692 65.2402 23.3325 65.6667 23.3325C66.0935 23.3325 66.5201 23.1692 66.8451 22.8442C67.4968 22.1925 67.4968 21.1392 66.8451 20.4876L63.5134 17.156C63.3583 17.0009 63.1751 16.8792 62.9701 16.7942C62.5634 16.6259 62.1035 16.6259 61.6968 16.7942C61.4917 16.8792 61.3085 17.0009 61.1535 17.156L57.8218 20.4876C57.1701 21.1394 57.1701 22.1927 57.8218 22.8442C58.4736 23.4958 59.5269 23.4958 60.1785 22.8442L60.6667 22.356V60.9759L60.1785 60.4876C59.5267 59.836 58.4734 59.836 57.8218 60.4876C57.1701 61.1394 57.1701 62.1927 57.8218 62.8442L61.1535 66.1759C61.3085 66.331 61.4917 66.4526 61.6968 66.5376C61.9001 66.6226 62.1167 66.6659 62.3335 66.6659C62.5501 66.6659 62.7669 66.6226 62.9703 66.5376C63.1753 66.4526 63.3585 66.331 63.5136 66.1759L66.8453 62.8442C67.497 62.1925 67.497 61.1392 66.8453 60.4876C66.1937 59.836 65.1402 59.836 64.4886 60.4876L64.0003 60.9759V22.356L64.4884 22.8442Z" fill="black" fill-opacity="0.2"/>
    <path d="M64.4884 22.8442C64.8134 23.1692 65.2402 23.3325 65.6667 23.3325C66.0935 23.3325 66.5201 23.1692 66.8451 22.8442C67.4968 22.1925 67.4968 21.1392 66.8451 20.4876L63.5134 17.156C63.3583 17.0009 63.1751 16.8792 62.9701 16.7942C62.5634 16.6259 62.1035 16.6259 61.6968 16.7942C61.4917 16.8792 61.3085 17.0009 61.1535 17.156L57.8218 20.4876C57.1701 21.1394 57.1701 22.1927 57.8218 22.8442C58.4736 23.4958 59.5269 23.4958 60.1785 22.8442L60.6667 22.356V60.9759L60.1785 60.4876C59.5267 59.836 58.4734 59.836 57.8218 60.4876C57.1701 61.1394 57.1701 62.1927 57.8218 62.8442L61.1535 66.1759C61.3085 66.331 61.4917 66.4526 61.6968 66.5376C61.9001 66.6226 62.1167 66.6659 62.3335 66.6659C62.5501 66.6659 62.7669 66.6226 62.9703 66.5376C63.1753 66.4526 63.3585 66.331 63.5136 66.1759L66.8453 62.8442C67.497 62.1925 67.497 61.1392 66.8453 60.4876C66.1937 59.836 65.1402 59.836 64.4886 60.4876L64.0003 60.9759V22.356L64.4884 22.8442Z" fill="black" fill-opacity="0.2"/>
    <path d="M64.4884 22.8442C64.8134 23.1692 65.2402 23.3325 65.6667 23.3325C66.0935 23.3325 66.5201 23.1692 66.8451 22.8442C67.4968 22.1925 67.4968 21.1392 66.8451 20.4876L63.5134 17.156C63.3583 17.0009 63.1751 16.8792 62.9701 16.7942C62.5634 16.6259 62.1035 16.6259 61.6968 16.7942C61.4917 16.8792 61.3085 17.0009 61.1535 17.156L57.8218 20.4876C57.1701 21.1394 57.1701 22.1927 57.8218 22.8442C58.4736 23.4958 59.5269 23.4958 60.1785 22.8442L60.6667 22.356V60.9759L60.1785 60.4876C59.5267 59.836 58.4734 59.836 57.8218 60.4876C57.1701 61.1394 57.1701 62.1927 57.8218 62.8442L61.1535 66.1759C61.3085 66.331 61.4917 66.4526 61.6968 66.5376C61.9001 66.6226 62.1167 66.6659 62.3335 66.6659C62.5501 66.6659 62.7669 66.6226 62.9703 66.5376C63.1753 66.4526 63.3585 66.331 63.5136 66.1759L66.8453 62.8442C67.497 62.1925 67.497 61.1392 66.8453 60.4876C66.1937 59.836 65.1402 59.836 64.4886 60.4876L64.0003 60.9759V22.356L64.4884 22.8442Z" fill="black" fill-opacity="0.2"/>
  </g>
  <defs>
    <clipPath id="clip0_507_5840">
      <rect width="100" height="100" fill="white" transform="translate(0.666504)"/>
    </clipPath>
  </defs>
</svg>